<?xml version="1.0" standalone="no"?><!DOCTYPE svg PUBLIC "-//W3C//DTD SVG 1.1//EN" "http://www.w3.org/Graphics/SVG/1.1/DTD/svg11.dtd"><svg t="1556780443397" class="icon" style="" viewBox="0 0 1024 1024" version="1.1" xmlns="http://www.w3.org/2000/svg" p-id="1328" xmlns:xlink="http://www.w3.org/1999/xlink" width="200" height="200"><defs><style type="text/css"></style></defs><path d="M720.19968 0H152.6784C110.98112 0 77.16864 32.21504 77.16864 71.94624v880.128C77.16864 991.66208 110.98112 1024 152.6784 1024h718.6432c41.69728 0 75.53024-32.21504 75.53024-71.94624V253.19424L720.19968 0z m126.6688 251.84256h-151.87968V82.14528l151.87968 169.69728z m9.95328 694.55872H168.6528c-7.00416 0-12.41088-4.66944-12.41088-8.84736V85.46304c0-4.17792 5.28384-8.86784 12.41088-8.86784H636.3136v185.69216a61.93152 61.93152 0 0 0 61.87008 61.87008h170.94656v613.39648c0 4.17792-5.30432 8.84736-12.30848 8.84736z m0 0" fill="#5BB1EF" p-id="1329"></path><path d="M570.28608 311.6032a39.3216 39.3216 0 0 1-39.34208 39.36256H318.19776a39.30112 39.30112 0 0 1-39.34208-39.36256c0-21.77024 17.59232-39.34208 39.34208-39.34208h212.74624c21.62688 0 39.34208 17.57184 39.34208 39.34208z m0 0M755.36384 507.14624a39.3216 39.3216 0 0 1-39.34208 39.36256H321.26976a39.3216 39.3216 0 0 1-39.36256-39.36256 39.3216 39.3216 0 0 1 39.36256-39.36256h394.752c21.64736 0 39.34208 17.59232 39.34208 39.36256z m0 0M755.36384 702.68928a39.28064 39.28064 0 0 1-39.34208 39.34208H321.26976a39.3216 39.3216 0 0 1-39.36256-39.34208 39.3216 39.3216 0 0 1 39.36256-39.36256h394.752c21.64736 0 39.34208 17.69472 39.34208 39.36256z m0 0" fill="#5BB1EF" p-id="1330"></path></svg>